<mxfile host="app.diagrams.net" agent="Mozilla/5.0 (Windows NT 10.0; Win64; x64) AppleWebKit/537.36 (KHTML, like Gecko) Chrome/133.0.0.0 Safari/537.36" version="26.0.13">
  <diagram id="C5RBs43oDa-KdzZeNtuy" name="Page-1">
    <mxGraphModel dx="1861" dy="445" grid="1" gridSize="10" guides="1" tooltips="1" connect="1" arrows="1" fold="1" page="1" pageScale="1" pageWidth="827" pageHeight="1169" math="0" shadow="0">
      <root>
        <mxCell id="WIyWlLk6GJQsqaUBKTNV-0" />
        <mxCell id="WIyWlLk6GJQsqaUBKTNV-1" parent="WIyWlLk6GJQsqaUBKTNV-0" />
        <mxCell id="0nZKB-xrsCa42AyGfKCq-1" value="&lt;p style=&quot;margin:0px;margin-top:4px;text-align:center;&quot;&gt;&lt;b&gt;CardFeignClient&lt;/b&gt;&lt;/p&gt;&lt;hr size=&quot;1&quot; style=&quot;border-style:solid;&quot;&gt;&lt;p style=&quot;margin:0px;margin-left:4px;&quot;&gt;&lt;/p&gt;&lt;p style=&quot;margin:0px;margin-left:4px;&quot;&gt;+ CardDTO getCardbyUserId&lt;/p&gt;&lt;p style=&quot;margin:0px;margin-left:4px;&quot;&gt;&lt;span class=&quot;hljs-keyword&quot;&gt;+ void&lt;/span&gt; &lt;span class=&quot;hljs-title function_&quot;&gt;updateBalance&lt;/span&gt;&lt;span class=&quot;hljs-params&quot;&gt;(Long cardId, Double amount)&lt;/span&gt;&lt;/p&gt;&lt;p style=&quot;margin:0px;margin-left:4px;&quot;&gt;&lt;br&gt;&lt;/p&gt;" style="verticalAlign=top;align=left;overflow=fill;html=1;whiteSpace=wrap;" parent="WIyWlLk6GJQsqaUBKTNV-1" vertex="1">
          <mxGeometry x="320" y="450" width="270" height="90" as="geometry" />
        </mxCell>
        <mxCell id="0nZKB-xrsCa42AyGfKCq-2" value="récupère CardDTO&amp;nbsp;" style="endArrow=open;endSize=12;dashed=1;html=1;rounded=0;entryX=0.595;entryY=-0.007;entryDx=0;entryDy=0;entryPerimeter=0;exitX=0.081;exitY=1.023;exitDx=0;exitDy=0;exitPerimeter=0;" parent="WIyWlLk6GJQsqaUBKTNV-1" source="0nZKB-xrsCa42AyGfKCq-6" target="0nZKB-xrsCa42AyGfKCq-1" edge="1">
          <mxGeometry width="160" relative="1" as="geometry">
            <mxPoint x="300" y="90" as="sourcePoint" />
            <mxPoint x="370" y="230" as="targetPoint" />
          </mxGeometry>
        </mxCell>
        <mxCell id="0nZKB-xrsCa42AyGfKCq-3" value="PaymentServiceImpl" style="swimlane;fontStyle=1;align=center;verticalAlign=top;childLayout=stackLayout;horizontal=1;startSize=26;horizontalStack=0;resizeParent=1;resizeParentMax=0;resizeLast=0;collapsible=1;marginBottom=0;whiteSpace=wrap;html=1;" parent="WIyWlLk6GJQsqaUBKTNV-1" vertex="1">
          <mxGeometry x="300" y="10" width="260" height="90" as="geometry" />
        </mxCell>
        <mxCell id="0nZKB-xrsCa42AyGfKCq-5" value="" style="line;strokeWidth=1;fillColor=none;align=left;verticalAlign=middle;spacingTop=-1;spacingLeft=3;spacingRight=3;rotatable=0;labelPosition=right;points=[];portConstraint=eastwest;strokeColor=inherit;" parent="0nZKB-xrsCa42AyGfKCq-3" vertex="1">
          <mxGeometry y="26" width="260" height="8" as="geometry" />
        </mxCell>
        <mxCell id="0nZKB-xrsCa42AyGfKCq-6" value="&lt;div&gt;&lt;span class=&quot;hljs-keyword&quot;&gt;- void&lt;/span&gt; &lt;span class=&quot;hljs-title function_&quot;&gt;updateTransactionStatus&lt;/span&gt;&lt;span class=&quot;hljs-params&quot;&gt;(Long transactionId, TransactionStatus status)&lt;/span&gt;;&lt;/div&gt;" style="text;strokeColor=none;fillColor=none;align=left;verticalAlign=top;spacingLeft=4;spacingRight=4;overflow=hidden;rotatable=0;points=[[0,0.5],[1,0.5]];portConstraint=eastwest;whiteSpace=wrap;html=1;" parent="0nZKB-xrsCa42AyGfKCq-3" vertex="1">
          <mxGeometry y="34" width="260" height="56" as="geometry" />
        </mxCell>
        <mxCell id="0nZKB-xrsCa42AyGfKCq-7" value="TransactionRepository" style="swimlane;fontStyle=1;align=center;verticalAlign=top;childLayout=stackLayout;horizontal=1;startSize=26;horizontalStack=0;resizeParent=1;resizeParentMax=0;resizeLast=0;collapsible=1;marginBottom=0;whiteSpace=wrap;html=1;" parent="WIyWlLk6GJQsqaUBKTNV-1" vertex="1">
          <mxGeometry x="520" y="260" width="230" height="150" as="geometry" />
        </mxCell>
        <mxCell id="0nZKB-xrsCa42AyGfKCq-9" value="" style="line;strokeWidth=1;fillColor=none;align=left;verticalAlign=middle;spacingTop=-1;spacingLeft=3;spacingRight=3;rotatable=0;labelPosition=right;points=[];portConstraint=eastwest;strokeColor=inherit;" parent="0nZKB-xrsCa42AyGfKCq-7" vertex="1">
          <mxGeometry y="26" width="230" height="8" as="geometry" />
        </mxCell>
        <mxCell id="0nZKB-xrsCa42AyGfKCq-10" value="+ List&amp;lt;Transaction&amp;gt; findByCustomerId(Long customerId)&lt;div&gt;+ List&amp;lt;Transaction&amp;gt; findByMerchantId(Long merchantId)&lt;/div&gt;&lt;div&gt;+ List&amp;lt;Transaction&amp;gt; findByCardId(Long cardId)&lt;/div&gt;" style="text;strokeColor=none;fillColor=none;align=left;verticalAlign=top;spacingLeft=4;spacingRight=4;overflow=hidden;rotatable=0;points=[[0,0.5],[1,0.5]];portConstraint=eastwest;whiteSpace=wrap;html=1;" parent="0nZKB-xrsCa42AyGfKCq-7" vertex="1">
          <mxGeometry y="34" width="230" height="116" as="geometry" />
        </mxCell>
        <mxCell id="0nZKB-xrsCa42AyGfKCq-11" value="uses" style="html=1;verticalAlign=bottom;endArrow=open;dashed=1;endSize=8;curved=0;rounded=0;exitX=0.473;exitY=1.047;exitDx=0;exitDy=0;exitPerimeter=0;entryX=0.391;entryY=0;entryDx=0;entryDy=0;entryPerimeter=0;" parent="WIyWlLk6GJQsqaUBKTNV-1" source="0nZKB-xrsCa42AyGfKCq-6" target="0nZKB-xrsCa42AyGfKCq-7" edge="1">
          <mxGeometry relative="1" as="geometry">
            <mxPoint x="380" y="130" as="sourcePoint" />
            <mxPoint x="300" y="130" as="targetPoint" />
          </mxGeometry>
        </mxCell>
        <mxCell id="0nZKB-xrsCa42AyGfKCq-12" value="&lt;div&gt;&amp;lt;&amp;lt;entity&amp;gt;&amp;gt;&lt;span style=&quot;background-color: transparent; color: light-dark(rgb(0, 0, 0), rgb(255, 255, 255));&quot;&gt;Transaction&lt;/span&gt;&lt;/div&gt;" style="swimlane;fontStyle=1;align=center;verticalAlign=top;childLayout=stackLayout;horizontal=1;startSize=26;horizontalStack=0;resizeParent=1;resizeParentMax=0;resizeLast=0;collapsible=1;marginBottom=0;whiteSpace=wrap;html=1;" parent="WIyWlLk6GJQsqaUBKTNV-1" vertex="1">
          <mxGeometry x="-410" y="585" width="280" height="204" as="geometry">
            <mxRectangle x="150" y="499" width="100" height="40" as="alternateBounds" />
          </mxGeometry>
        </mxCell>
        <mxCell id="0nZKB-xrsCa42AyGfKCq-13" value="- Long transactionId&lt;div&gt;- Long commercetId&lt;/div&gt;&lt;div&gt;+ float transactionAmount&amp;nbsp;&lt;/div&gt;&lt;div&gt;+ TransactionStatus status&lt;/div&gt;&lt;div&gt;+ String transactionToken&lt;/div&gt;&lt;div&gt;+ Long CardId&lt;/div&gt;&lt;div&gt;&lt;br&gt;&lt;/div&gt;&lt;div&gt;&lt;br&gt;&lt;/div&gt;&lt;div&gt;&lt;br&gt;&lt;/div&gt;" style="text;strokeColor=none;fillColor=none;align=left;verticalAlign=top;spacingLeft=4;spacingRight=4;overflow=hidden;rotatable=0;points=[[0,0.5],[1,0.5]];portConstraint=eastwest;whiteSpace=wrap;html=1;" parent="0nZKB-xrsCa42AyGfKCq-12" vertex="1">
          <mxGeometry y="26" width="280" height="104" as="geometry" />
        </mxCell>
        <mxCell id="0nZKB-xrsCa42AyGfKCq-14" value="" style="line;strokeWidth=1;fillColor=none;align=left;verticalAlign=middle;spacingTop=-1;spacingLeft=3;spacingRight=3;rotatable=0;labelPosition=right;points=[];portConstraint=eastwest;strokeColor=inherit;" parent="0nZKB-xrsCa42AyGfKCq-12" vertex="1">
          <mxGeometry y="130" width="280" height="10" as="geometry" />
        </mxCell>
        <mxCell id="0nZKB-xrsCa42AyGfKCq-15" value="+ setters&amp;nbsp;&lt;div&gt;+ getters&lt;/div&gt;&lt;div&gt;-generateToken&lt;/div&gt;&lt;div&gt;&amp;nbsp;&lt;/div&gt;&lt;div&gt;&lt;br&gt;&lt;/div&gt;" style="text;strokeColor=none;fillColor=none;align=left;verticalAlign=top;spacingLeft=4;spacingRight=4;overflow=hidden;rotatable=0;points=[[0,0.5],[1,0.5]];portConstraint=eastwest;whiteSpace=wrap;html=1;" parent="0nZKB-xrsCa42AyGfKCq-12" vertex="1">
          <mxGeometry y="140" width="280" height="64" as="geometry" />
        </mxCell>
        <mxCell id="0nZKB-xrsCa42AyGfKCq-16" value="TransactionDTO" style="swimlane;fontStyle=1;align=center;verticalAlign=top;childLayout=stackLayout;horizontal=1;startSize=26;horizontalStack=0;resizeParent=1;resizeParentMax=0;resizeLast=0;collapsible=1;marginBottom=0;whiteSpace=wrap;html=1;" parent="WIyWlLk6GJQsqaUBKTNV-1" vertex="1">
          <mxGeometry x="-400" y="40" width="280" height="180" as="geometry" />
        </mxCell>
        <mxCell id="0nZKB-xrsCa42AyGfKCq-17" value="&lt;div&gt;- Long transactionId&lt;div&gt;- Long commercetId&lt;/div&gt;&lt;div&gt;+ float transactionAmount&amp;nbsp;&lt;/div&gt;&lt;div&gt;+ TransactionStatus status&lt;/div&gt;&lt;div&gt;+ String transactionToken&lt;/div&gt;&lt;div&gt;+ CardDTO card&lt;/div&gt;&lt;/div&gt;" style="text;strokeColor=none;fillColor=none;align=left;verticalAlign=top;spacingLeft=4;spacingRight=4;overflow=hidden;rotatable=0;points=[[0,0.5],[1,0.5]];portConstraint=eastwest;whiteSpace=wrap;html=1;" parent="0nZKB-xrsCa42AyGfKCq-16" vertex="1">
          <mxGeometry y="26" width="280" height="104" as="geometry" />
        </mxCell>
        <mxCell id="0nZKB-xrsCa42AyGfKCq-18" value="" style="line;strokeWidth=1;fillColor=none;align=left;verticalAlign=middle;spacingTop=-1;spacingLeft=3;spacingRight=3;rotatable=0;labelPosition=right;points=[];portConstraint=eastwest;strokeColor=inherit;" parent="0nZKB-xrsCa42AyGfKCq-16" vertex="1">
          <mxGeometry y="130" width="280" height="10" as="geometry" />
        </mxCell>
        <mxCell id="0nZKB-xrsCa42AyGfKCq-19" value="+ setters&amp;nbsp;&lt;div&gt;+ getters&amp;nbsp;&lt;/div&gt;&lt;div&gt;&lt;br&gt;&lt;/div&gt;" style="text;strokeColor=none;fillColor=none;align=left;verticalAlign=top;spacingLeft=4;spacingRight=4;overflow=hidden;rotatable=0;points=[[0,0.5],[1,0.5]];portConstraint=eastwest;whiteSpace=wrap;html=1;" parent="0nZKB-xrsCa42AyGfKCq-16" vertex="1">
          <mxGeometry y="140" width="280" height="40" as="geometry" />
        </mxCell>
        <mxCell id="0nZKB-xrsCa42AyGfKCq-21" value="&lt;div&gt;TransactionMapper&lt;/div&gt;" style="swimlane;fontStyle=1;align=center;verticalAlign=top;childLayout=stackLayout;horizontal=1;startSize=26;horizontalStack=0;resizeParent=1;resizeParentMax=0;resizeLast=0;collapsible=1;marginBottom=0;whiteSpace=wrap;html=1;" parent="WIyWlLk6GJQsqaUBKTNV-1" vertex="1">
          <mxGeometry x="-390" y="319" width="280" height="76" as="geometry">
            <mxRectangle x="150" y="499" width="100" height="40" as="alternateBounds" />
          </mxGeometry>
        </mxCell>
        <mxCell id="0nZKB-xrsCa42AyGfKCq-23" value="" style="line;strokeWidth=1;fillColor=none;align=left;verticalAlign=middle;spacingTop=-1;spacingLeft=3;spacingRight=3;rotatable=0;labelPosition=right;points=[];portConstraint=eastwest;strokeColor=inherit;" parent="0nZKB-xrsCa42AyGfKCq-21" vertex="1">
          <mxGeometry y="26" width="280" height="10" as="geometry" />
        </mxCell>
        <mxCell id="0nZKB-xrsCa42AyGfKCq-24" value="&lt;div&gt;&lt;div&gt;+Transaction toEntity(TransactionDTO dto)&lt;/div&gt;&lt;div&gt;+TransactionDTO toDto(Transaction transaction)&lt;/div&gt;&lt;/div&gt;" style="text;strokeColor=none;fillColor=none;align=left;verticalAlign=top;spacingLeft=4;spacingRight=4;overflow=hidden;rotatable=0;points=[[0,0.5],[1,0.5]];portConstraint=eastwest;whiteSpace=wrap;html=1;" parent="0nZKB-xrsCa42AyGfKCq-21" vertex="1">
          <mxGeometry y="36" width="280" height="40" as="geometry" />
        </mxCell>
        <mxCell id="wpSQlMS1g1WLogvBtv8N-0" value="&lt;div&gt;&amp;lt;&amp;lt;abstract&amp;gt;&amp;gt;&lt;/div&gt;&lt;div&gt;DateAudit&lt;/div&gt;" style="swimlane;fontStyle=1;align=center;verticalAlign=top;childLayout=stackLayout;horizontal=1;startSize=26;horizontalStack=0;resizeParent=1;resizeParentMax=0;resizeLast=0;collapsible=1;marginBottom=0;whiteSpace=wrap;html=1;" parent="WIyWlLk6GJQsqaUBKTNV-1" vertex="1">
          <mxGeometry x="-710" y="870" width="280" height="80" as="geometry">
            <mxRectangle x="150" y="499" width="100" height="40" as="alternateBounds" />
          </mxGeometry>
        </mxCell>
        <mxCell id="wpSQlMS1g1WLogvBtv8N-1" value="- Date CreatedAt&lt;div&gt;- Date UpadtedAt&lt;/div&gt;" style="text;strokeColor=none;fillColor=none;align=left;verticalAlign=top;spacingLeft=4;spacingRight=4;overflow=hidden;rotatable=0;points=[[0,0.5],[1,0.5]];portConstraint=eastwest;whiteSpace=wrap;html=1;" parent="wpSQlMS1g1WLogvBtv8N-0" vertex="1">
          <mxGeometry y="26" width="280" height="44" as="geometry" />
        </mxCell>
        <mxCell id="wpSQlMS1g1WLogvBtv8N-2" value="" style="line;strokeWidth=1;fillColor=none;align=left;verticalAlign=middle;spacingTop=-1;spacingLeft=3;spacingRight=3;rotatable=0;labelPosition=right;points=[];portConstraint=eastwest;strokeColor=inherit;" parent="wpSQlMS1g1WLogvBtv8N-0" vertex="1">
          <mxGeometry y="70" width="280" height="10" as="geometry" />
        </mxCell>
        <mxCell id="wpSQlMS1g1WLogvBtv8N-4" value="&lt;div&gt;&amp;lt;&amp;lt;abstract&amp;gt;&amp;gt;&lt;/div&gt;&lt;div&gt;UserAudit&lt;/div&gt;" style="swimlane;fontStyle=1;align=center;verticalAlign=top;childLayout=stackLayout;horizontal=1;startSize=26;horizontalStack=0;resizeParent=1;resizeParentMax=0;resizeLast=0;collapsible=1;marginBottom=0;whiteSpace=wrap;html=1;" parent="WIyWlLk6GJQsqaUBKTNV-1" vertex="1">
          <mxGeometry x="-350" y="870" width="280" height="80" as="geometry">
            <mxRectangle x="150" y="499" width="100" height="40" as="alternateBounds" />
          </mxGeometry>
        </mxCell>
        <mxCell id="wpSQlMS1g1WLogvBtv8N-5" value="- Long CreatedBy&lt;div&gt;- Long UpdatedBy&lt;/div&gt;" style="text;strokeColor=none;fillColor=none;align=left;verticalAlign=top;spacingLeft=4;spacingRight=4;overflow=hidden;rotatable=0;points=[[0,0.5],[1,0.5]];portConstraint=eastwest;whiteSpace=wrap;html=1;" parent="wpSQlMS1g1WLogvBtv8N-4" vertex="1">
          <mxGeometry y="26" width="280" height="44" as="geometry" />
        </mxCell>
        <mxCell id="wpSQlMS1g1WLogvBtv8N-6" value="" style="line;strokeWidth=1;fillColor=none;align=left;verticalAlign=middle;spacingTop=-1;spacingLeft=3;spacingRight=3;rotatable=0;labelPosition=right;points=[];portConstraint=eastwest;strokeColor=inherit;" parent="wpSQlMS1g1WLogvBtv8N-4" vertex="1">
          <mxGeometry y="70" width="280" height="10" as="geometry" />
        </mxCell>
        <mxCell id="wpSQlMS1g1WLogvBtv8N-7" value="&amp;lt;&amp;lt;Enum&amp;gt;&amp;gt;&lt;span style=&quot;background-color: transparent; color: light-dark(rgb(0, 0, 0), rgb(255, 255, 255));&quot;&gt;TransactionStatus&lt;/span&gt;" style="swimlane;fontStyle=1;align=center;verticalAlign=top;childLayout=stackLayout;horizontal=1;startSize=26;horizontalStack=0;resizeParent=1;resizeParentMax=0;resizeLast=0;collapsible=1;marginBottom=0;whiteSpace=wrap;html=1;" parent="WIyWlLk6GJQsqaUBKTNV-1" vertex="1">
          <mxGeometry x="-700" y="480" width="160" height="134" as="geometry" />
        </mxCell>
        <mxCell id="wpSQlMS1g1WLogvBtv8N-8" value="PENDING&lt;div&gt;SUCCESS&lt;/div&gt;&lt;div&gt;FAILED&lt;/div&gt;" style="text;strokeColor=none;fillColor=none;align=left;verticalAlign=top;spacingLeft=4;spacingRight=4;overflow=hidden;rotatable=0;points=[[0,0.5],[1,0.5]];portConstraint=eastwest;whiteSpace=wrap;html=1;" parent="wpSQlMS1g1WLogvBtv8N-7" vertex="1">
          <mxGeometry y="26" width="160" height="74" as="geometry" />
        </mxCell>
        <mxCell id="wpSQlMS1g1WLogvBtv8N-9" value="" style="line;strokeWidth=1;fillColor=none;align=left;verticalAlign=middle;spacingTop=-1;spacingLeft=3;spacingRight=3;rotatable=0;labelPosition=right;points=[];portConstraint=eastwest;strokeColor=inherit;" parent="wpSQlMS1g1WLogvBtv8N-7" vertex="1">
          <mxGeometry y="100" width="160" height="8" as="geometry" />
        </mxCell>
        <mxCell id="wpSQlMS1g1WLogvBtv8N-10" value="+ method(type): type" style="text;strokeColor=none;fillColor=none;align=left;verticalAlign=top;spacingLeft=4;spacingRight=4;overflow=hidden;rotatable=0;points=[[0,0.5],[1,0.5]];portConstraint=eastwest;whiteSpace=wrap;html=1;" parent="wpSQlMS1g1WLogvBtv8N-7" vertex="1">
          <mxGeometry y="108" width="160" height="26" as="geometry" />
        </mxCell>
        <mxCell id="wpSQlMS1g1WLogvBtv8N-11" value="converti en&amp;nbsp;" style="endArrow=open;endSize=12;dashed=1;html=1;rounded=0;exitX=0.496;exitY=1.097;exitDx=0;exitDy=0;exitPerimeter=0;entryX=0.5;entryY=0;entryDx=0;entryDy=0;" parent="WIyWlLk6GJQsqaUBKTNV-1" source="0nZKB-xrsCa42AyGfKCq-19" target="0nZKB-xrsCa42AyGfKCq-21" edge="1">
          <mxGeometry width="160" relative="1" as="geometry">
            <mxPoint x="-150" y="360" as="sourcePoint" />
            <mxPoint x="10" y="360" as="targetPoint" />
          </mxGeometry>
        </mxCell>
        <mxCell id="GAb1PLcU3FFAOyXbtWhQ-1" value="&amp;lt;&amp;lt;interface&amp;gt;&amp;gt; IPaymentService" style="swimlane;fontStyle=1;align=center;verticalAlign=top;childLayout=stackLayout;horizontal=1;startSize=26;horizontalStack=0;resizeParent=1;resizeParentMax=0;resizeLast=0;collapsible=1;marginBottom=0;whiteSpace=wrap;html=1;" parent="WIyWlLk6GJQsqaUBKTNV-1" vertex="1">
          <mxGeometry x="-70" y="320" width="330" height="190" as="geometry" />
        </mxCell>
        <mxCell id="GAb1PLcU3FFAOyXbtWhQ-3" value="" style="line;strokeWidth=1;fillColor=none;align=left;verticalAlign=middle;spacingTop=-1;spacingLeft=3;spacingRight=3;rotatable=0;labelPosition=right;points=[];portConstraint=eastwest;strokeColor=inherit;" parent="GAb1PLcU3FFAOyXbtWhQ-1" vertex="1">
          <mxGeometry y="26" width="330" height="8" as="geometry" />
        </mxCell>
        <mxCell id="GAb1PLcU3FFAOyXbtWhQ-4" value="+ TransactionDTO &lt;span class=&quot;hljs-title function_&quot;&gt;initiatePayment&lt;/span&gt;&lt;span class=&quot;hljs-params&quot;&gt;(Long commerceId, Float amount)&lt;/span&gt;;&lt;div&gt;+TransactionDTO &lt;span class=&quot;hljs-title function_&quot;&gt;confirmPayment&lt;/span&gt;&lt;span class=&quot;hljs-params&quot;&gt;(String transactionToken)&lt;/span&gt;&lt;/div&gt;&lt;div&gt;&lt;span class=&quot;hljs-params&quot;&gt;+&lt;/span&gt;&lt;span style=&quot;background-color: transparent; color: light-dark(rgb(0, 0, 0), rgb(255, 255, 255));&quot;&gt;List&amp;lt;TransactionDTO&amp;gt; &lt;/span&gt;&lt;span style=&quot;background-color: transparent; color: light-dark(rgb(0, 0, 0), rgb(255, 255, 255));&quot; class=&quot;hljs-title function_&quot;&gt;getTransactionsByCard&lt;/span&gt;&lt;span style=&quot;background-color: transparent; color: light-dark(rgb(0, 0, 0), rgb(255, 255, 255));&quot; class=&quot;hljs-params&quot;&gt;(Long cardId)&lt;/span&gt;&lt;/div&gt;&lt;div&gt;&lt;span style=&quot;background-color: transparent; color: light-dark(rgb(0, 0, 0), rgb(255, 255, 255));&quot; class=&quot;hljs-params&quot;&gt;+&lt;/span&gt;&lt;span style=&quot;background-color: transparent; color: light-dark(rgb(0, 0, 0), rgb(255, 255, 255));&quot;&gt;List&amp;lt;TransactionDTO&amp;gt; &lt;/span&gt;&lt;span style=&quot;background-color: transparent; color: light-dark(rgb(0, 0, 0), rgb(255, 255, 255));&quot; class=&quot;hljs-title function_&quot;&gt;getTransactionsByCommerce&lt;/span&gt;&lt;span style=&quot;background-color: transparent; color: light-dark(rgb(0, 0, 0), rgb(255, 255, 255));&quot; class=&quot;hljs-params&quot;&gt;(Long commerceId)&lt;/span&gt;&lt;/div&gt;&lt;div&gt;&lt;span style=&quot;background-color: transparent; color: light-dark(rgb(0, 0, 0), rgb(255, 255, 255));&quot; class=&quot;hljs-params&quot;&gt;+&amp;nbsp;&lt;/span&gt;&lt;span style=&quot;background-color: transparent; color: light-dark(rgb(0, 0, 0), rgb(255, 255, 255));&quot;&gt;TransactionDTO &lt;/span&gt;&lt;span style=&quot;background-color: transparent; color: light-dark(rgb(0, 0, 0), rgb(255, 255, 255));&quot; class=&quot;hljs-title function_&quot;&gt;getTransactionById&lt;/span&gt;&lt;span style=&quot;background-color: transparent; color: light-dark(rgb(0, 0, 0), rgb(255, 255, 255));&quot; class=&quot;hljs-params&quot;&gt;(Long transactionId)&lt;/span&gt;&lt;/div&gt;&lt;div&gt;&lt;span style=&quot;background-color: transparent; color: light-dark(rgb(0, 0, 0), rgb(255, 255, 255));&quot; class=&quot;hljs-params&quot;&gt;+&lt;/span&gt;&lt;span style=&quot;background-color: transparent; color: light-dark(rgb(0, 0, 0), rgb(255, 255, 255));&quot; class=&quot;hljs-keyword&quot;&gt;void&lt;/span&gt;&lt;span style=&quot;background-color: transparent; color: light-dark(rgb(0, 0, 0), rgb(255, 255, 255));&quot;&gt; &lt;/span&gt;&lt;span style=&quot;background-color: transparent; color: light-dark(rgb(0, 0, 0), rgb(255, 255, 255));&quot; class=&quot;hljs-title function_&quot;&gt;cancelPayment&lt;/span&gt;&lt;span style=&quot;background-color: transparent; color: light-dark(rgb(0, 0, 0), rgb(255, 255, 255));&quot; class=&quot;hljs-params&quot;&gt;(String transactionToken)&lt;/span&gt;&lt;/div&gt;" style="text;strokeColor=none;fillColor=none;align=left;verticalAlign=top;spacingLeft=4;spacingRight=4;overflow=hidden;rotatable=0;points=[[0,0.5],[1,0.5]];portConstraint=eastwest;whiteSpace=wrap;html=1;" parent="GAb1PLcU3FFAOyXbtWhQ-1" vertex="1">
          <mxGeometry y="34" width="330" height="156" as="geometry" />
        </mxCell>
        <mxCell id="GAb1PLcU3FFAOyXbtWhQ-5" value="Implements" style="endArrow=open;endSize=12;dashed=1;html=1;rounded=0;exitX=0;exitY=1;exitDx=0;exitDy=0;exitPerimeter=0;entryX=0.638;entryY=-0.007;entryDx=0;entryDy=0;entryPerimeter=0;" parent="WIyWlLk6GJQsqaUBKTNV-1" source="0nZKB-xrsCa42AyGfKCq-6" target="GAb1PLcU3FFAOyXbtWhQ-1" edge="1">
          <mxGeometry width="160" relative="1" as="geometry">
            <mxPoint x="230" y="270" as="sourcePoint" />
            <mxPoint x="390" y="270" as="targetPoint" />
          </mxGeometry>
        </mxCell>
        <mxCell id="GAb1PLcU3FFAOyXbtWhQ-6" value="crée une instance" style="endArrow=open;endSize=12;dashed=1;html=1;rounded=0;entryX=0.5;entryY=0;entryDx=0;entryDy=0;" parent="WIyWlLk6GJQsqaUBKTNV-1" target="0nZKB-xrsCa42AyGfKCq-12" edge="1">
          <mxGeometry width="160" relative="1" as="geometry">
            <mxPoint x="-260" y="400" as="sourcePoint" />
            <mxPoint x="-260" y="490" as="targetPoint" />
          </mxGeometry>
        </mxCell>
        <mxCell id="GAb1PLcU3FFAOyXbtWhQ-7" value="définit le statut de la transaction" style="endArrow=open;endSize=12;dashed=1;html=1;rounded=0;entryX=-0.013;entryY=0.859;entryDx=0;entryDy=0;entryPerimeter=0;" parent="WIyWlLk6GJQsqaUBKTNV-1" source="wpSQlMS1g1WLogvBtv8N-10" target="0nZKB-xrsCa42AyGfKCq-13" edge="1">
          <mxGeometry width="160" relative="1" as="geometry">
            <mxPoint x="-420" y="830" as="sourcePoint" />
            <mxPoint x="-260" y="830" as="targetPoint" />
          </mxGeometry>
        </mxCell>
        <mxCell id="GAb1PLcU3FFAOyXbtWhQ-11" value="implements" style="endArrow=block;endSize=16;endFill=0;html=1;rounded=0;exitX=0.015;exitY=1.025;exitDx=0;exitDy=0;exitPerimeter=0;entryX=0.617;entryY=-0.007;entryDx=0;entryDy=0;entryPerimeter=0;" parent="WIyWlLk6GJQsqaUBKTNV-1" source="0nZKB-xrsCa42AyGfKCq-15" target="wpSQlMS1g1WLogvBtv8N-0" edge="1">
          <mxGeometry width="160" relative="1" as="geometry">
            <mxPoint x="-420" y="830" as="sourcePoint" />
            <mxPoint x="-260" y="830" as="targetPoint" />
          </mxGeometry>
        </mxCell>
        <mxCell id="GAb1PLcU3FFAOyXbtWhQ-12" value="implements" style="endArrow=block;endSize=16;endFill=0;html=1;rounded=0;exitX=0.423;exitY=1.078;exitDx=0;exitDy=0;exitPerimeter=0;" parent="WIyWlLk6GJQsqaUBKTNV-1" source="0nZKB-xrsCa42AyGfKCq-15" target="wpSQlMS1g1WLogvBtv8N-4" edge="1">
          <mxGeometry width="160" relative="1" as="geometry">
            <mxPoint x="-396" y="801" as="sourcePoint" />
            <mxPoint x="-527" y="879" as="targetPoint" />
          </mxGeometry>
        </mxCell>
      </root>
    </mxGraphModel>
  </diagram>
</mxfile>
